<?xml version="1.0" standalone="yes"?>

<svg version="1.1" viewBox="0.0 0.0 960.0 720.0" fill="none" stroke="none" stroke-linecap="square" stroke-miterlimit="10" xmlns="http://www.w3.org/2000/svg" xmlns:xlink="http://www.w3.org/1999/xlink">
  <clipPath id="p.0">
    <path d="m0 0l960.0 0l0 720.0l-960.0 0l0 -720.0z" clip-rule="nonzero"></path>
  </clipPath>
  <g clip-path="url(#p.0)">
    <path fill="#000000" fill-opacity="0.0" d="m0 0l960.0 0l0 720.0l-960.0 0z" fill-rule="evenodd"></path>
    <path fill="#000000" fill-opacity="0.0" d="m-184.14699 47.322834l1341.8268 0l0 625.3544l-1341.8268 0z" fill-rule="evenodd"></path>
    <path fill="#ff0000" d="m484.30084 175.52596l0 177.20314q0 38.390625 -19.203125 62.796875q-22.390625 28.0 -67.1875 28.0q-40.40625 0 -64.40625 -23.203125q-21.203125 -21.203125 -24.0 -50.796875l31.203125 0q2.796875 17.59375 16.390625 30.0q16.0 14.796875 42.40625 14.796875q32.0 0 45.59375 -21.203125q9.203125 -14.796875 9.203125 -41.59375l0 -176.00002l30.0 0z" fill-rule="nonzero"></path>
    <path fill="#3d85c6" d="m546.56964 571.65094l115.1875 0l0 18.671875l-139.71875 0l0 -18.9375l115.1875 -138.92184l-113.59375 0l0 -18.671875l138.125 0l0 19.203125l-115.1875 138.65622z" fill-rule="nonzero"></path>
  </g>
</svg>

