<?xml version="1.0" standalone="yes"?>

<svg version="1.1" viewBox="0.0 0.0 960.0 720.0" fill="none" stroke="none" stroke-linecap="square" stroke-miterlimit="10" xmlns="http://www.w3.org/2000/svg" xmlns:xlink="http://www.w3.org/1999/xlink"><clipPath id="p.0"><path d="m0 0l960.0 0l0 720.0l-960.0 0l0 -720.0z" clip-rule="nonzero"></path></clipPath><g clip-path="url(#p.0)"><path fill="#000000" fill-opacity="0.0" d="m0 0l960.0 0l0 720.0l-960.0 0z" fill-rule="evenodd"></path><path fill="#000000" fill-opacity="0.0" d="m-184.14699 47.322834l1341.8268 0l0 625.3544l-1341.8268 0z" fill-rule="evenodd"></path><path fill="#ff503e" d="m190.36317 175.52596l0 177.20314q0 38.390625 -19.203125 62.796875q-22.390625 28.0 -67.18749 28.0q-40.40625 0 -64.40625 -23.203125q-21.203127 -21.203125 -24.0 -50.796875l31.203125 0q2.796875 17.59375 16.390625 30.0q16.0 14.796875 42.40625 14.796875q31.999992 0 45.593742 -21.203125q9.203125 -14.796875 9.203125 -41.59375l0 -176.00002l30.0 0z" fill-rule="nonzero"></path><path fill="#73ffcb" d="m483.96008 440.32285l-33.1875 0l-32.40625 -76.796875l-131.2031 0l-32.39064 76.796875l-33.203125 0l112.39061 -264.79688l37.609375 0l112.390625 264.79688zm-77.1875 -104.40625l-54.0 -129.18752l-53.99997 129.18752l107.99997 0z" fill-rule="nonzero"></path><path fill="#de5cff" d="m625.96326 303.52597l105.609375 136.79688l-38.0 0l-86.0 -113.59375l-85.609375 113.59375l-38.0 0l105.609375 -136.79688l-98.40625 -128.00002l38.0 0l78.40625 104.000015l78.796875 -104.000015l38.0 0l-98.40625 128.00002z" fill-rule="nonzero"></path><path fill="#ffd336" d="m778.7727 412.32285l172.79688 0l0 28.0l-209.60938 0l0 -28.40625l172.8125 -208.39064l-170.40625 0l0 -28.0l207.20312 0l0 28.796875l-172.79688 208.00002z" fill-rule="nonzero"></path><path fill="#ff503e" d="m9.566306 466.32285l210.80005 0l0 36.0l-210.80005 0l0 -36.0z" fill-rule="nonzero"></path><path fill="#73ffcb" d="m220.36635 466.32285l264.80005 0l0 36.0l-264.80005 0l0 -36.0z" fill-rule="nonzero"></path><path fill="#de5cff" d="m485.1664 466.32285l245.20004 0l0 36.0l-245.20004 0l0 -36.0z" fill-rule="nonzero"></path><path fill="#ffd336" d="m730.36646 466.32285l233.60004 0l0 36.0l-233.60004 0l0 -36.0z" fill-rule="nonzero"></path></g></svg>

