<?xml version="1.0" standalone="yes"?>

<svg version="1.1" viewBox="0.0 0.0 960.0 720.0" fill="none" stroke="none" stroke-linecap="square" stroke-miterlimit="10" xmlns="http://www.w3.org/2000/svg" xmlns:xlink="http://www.w3.org/1999/xlink"><clipPath id="p.0"><path d="m0 0l960.0 0l0 720.0l-960.0 0l0 -720.0z" clip-rule="nonzero"></path></clipPath><g clip-path="url(#p.0)"><path fill="#000000" fill-opacity="0.0" d="m0 0l960.0 0l0 720.0l-960.0 0z" fill-rule="evenodd"></path><path fill="#000000" fill-opacity="0.0" d="m96.27034 203.38846l797.2914 0l0 299.65353l-797.2914 0z" fill-rule="evenodd"></path><path fill="#cc0000" d="m420.80737 250.53409l0 56.703125q0 12.28125 -6.140625 20.09375q-7.171875 8.96875 -21.515625 8.96875q-12.921875 0 -20.609375 -7.4375q-6.78125 -6.78125 -7.671875 -16.25l9.984375 0q0.890625 5.625 5.25 9.59375q5.109375 4.75 13.5625 4.75q10.234375 0 14.59375 -6.796875q2.9375 -4.734375 2.9375 -13.3125l0 -56.3125l9.609375 0zm67.831024 74.5q-7.671875 11.265625 -22.90625 11.265625q-13.828125 0 -22.53125 -9.609375q-8.4375 -9.46875 -8.4375 -23.421875q0 -13.953125 8.4375 -23.421875q8.703125 -9.609375 23.171875 -9.609375q14.46875 0 22.265625 11.40625l0 -10.375l9.609375 0l0 64.0l-9.609375 0l0 -10.234375zm-21.625 2.546875q10.359375 0 16.375 -7.15625q5.765625 -6.78125 5.765625 -17.15625q0 -10.375 -5.765625 -17.15625q-6.015625 -7.15625 -16.375 -7.15625q-10.234375 0 -16.640625 7.15625q-6.015625 6.78125 -6.015625 17.15625q0 10.375 6.015625 17.15625q6.40625 7.15625 16.640625 7.15625zm75.91 -25.34375l24.828125 33.03125l-12.296875 0l-18.046875 -26.109375l-18.171875 26.109375l-12.15625 0l24.703125 -33.03125l-23.171875 -30.96875l12.296875 0l16.5 24.1875l16.390625 -24.1875l12.28125 0l-23.15625 30.96875zm41.33661 24.078125l38.40625 0l0 8.953125l-50.4375 0l0 -9.09375l38.265625 -46.078125l-37.75 0l0 -8.828125l49.921875 0l0 8.953125l-38.40625 46.09375z" fill-rule="nonzero"></path><path fill="#cc0000" d="m362.948 343.58847l263.93604 0l0 11.519989l-263.93604 0l0 -11.519989z" fill-rule="nonzero"></path></g></svg>

