<?xml version="1.0" standalone="yes"?>

<svg version="1.1" viewBox="0.0 0.0 960.0 720.0" fill="none" stroke="none" stroke-linecap="square" stroke-miterlimit="10" xmlns="http://www.w3.org/2000/svg" xmlns:xlink="http://www.w3.org/1999/xlink"><clipPath id="p.0"><path d="m0 0l960.0 0l0 720.0l-960.0 0l0 -720.0z" clip-rule="nonzero"></path></clipPath><g clip-path="url(#p.0)"><path fill="#000000" fill-opacity="0.0" d="m0 0l960.0 0l0 720.0l-960.0 0z" fill-rule="evenodd"></path><path fill="#000000" fill-opacity="0.0" d="m-84.068245 165.42258l1111.874 0l0 509.82675l-1111.874 0z" fill-rule="evenodd"></path><path fill="#ff503e" d="m187.31921 288.85944l0 170.10938q0 36.859375 -18.421875 60.28125q-21.515625 26.890625 -64.51563 26.890625q-38.78125 0 -61.82812 -22.28125q-20.34375 -20.34375 -23.03125 -48.765625l29.953125 0q2.6875 16.890625 15.734371 28.796875q15.359375 14.21875 40.703125 14.21875q30.718758 0 43.781258 -20.359375q8.828125 -14.203125 8.828125 -39.9375l0 -168.95312l28.796875 0z" fill-rule="nonzero"></path><path fill="#73ffcb" d="m469.18726 543.06256l-31.875 0l-31.109375 -73.734375l-125.953125 0l-31.09375 73.734375l-31.875 0l107.90625 -254.20312l36.09375 0l107.90625 254.20312zm-74.125 -100.21875l-51.828125 -124.03125l-51.84375 124.03125l103.671875 0z" fill-rule="nonzero"></path><path fill="#de5cff" d="m605.50464 411.73444l101.375 131.32812l-36.484375 0l-82.5625 -109.0625l-82.171875 109.0625l-36.484375 0l101.375 -131.32812l-94.453125 -122.875l36.46875 0l75.265625 99.828125l75.65625 -99.828125l36.46875 0l-94.453125 122.875z" fill-rule="nonzero"></path><path fill="#ffd336" d="m752.19354 516.18756l165.89062 0l0 26.875l-201.21875 0l0 -27.265625l165.89062 -200.0625l-163.59375 0l0 -26.875l198.92188 0l0 27.640625l-165.89062 199.6875z" fill-rule="nonzero"></path><path fill="#ff503e" d="m13.75671 568.0226l202.36803 0l0 34.559998l-202.36803 0l0 -34.559998z" fill-rule="nonzero"></path><path fill="#73ffcb" d="m216.12474 568.0226l254.20802 0l0 34.559998l-254.20802 0l0 -34.559998z" fill-rule="nonzero"></path><path fill="#de5cff" d="m470.33276 568.0226l235.39203 0l0 34.559998l-235.39203 0l0 -34.559998z" fill-rule="nonzero"></path><path fill="#ffd336" d="m705.7248 568.0226l224.25604 0l0 34.559998l-224.25604 0l0 -34.559998z" fill-rule="nonzero"></path></g></svg>

